<?xml version="1.0" encoding="iso-8859-1"?>
<!-- Generator: Adobe Illustrator 19.0.0, SVG Export Plug-In . SVG Version: 6.00 Build 0)  -->
<svg version="1.1" id="Layer_1" xmlns="http://www.w3.org/2000/svg" xmlns:xlink="http://www.w3.org/1999/xlink" x="0px" y="0px"
	 viewBox="0 0 512.007 512.007" style="enable-background:new 0 0 512.007 512.007;" xml:space="preserve">
<rect x="204.996" y="337.924" width="102" height="138"/>
<rect x="112.644" y="461.412" style="fill:#F2B851;" width="286.64" height="50.592"/>
<path d="M132.516,305.492C-1.724,263.668-0.028,112.868,0.004,111.348L0.34,95.684h94.912v32H32.756
	c3.28,35.328,20.496,119.6,109.264,147.232L132.516,305.492z"/>
<path d="M379.492,305.492l-9.504-30.56c88.768-27.648,105.984-111.904,109.264-147.232h-62.496v-32h94.912l0.336,15.648
	C512.036,112.868,513.732,263.668,379.492,305.492z"/>
<path style="fill:#F2B851;" d="M256.132,0.004H19.428v52.992h28c0,0,36,1.328,36,36s0,32.304,0,48.32
	s-17.936,186.496,172.704,257.92c190.64-71.424,172.704-241.904,172.704-257.92s0-13.648,0-48.32s36-36,36-36h28V0.004H256.132z"/>
<polygon style="fill:#FFFFFF;" points="196.948,255.108 220.18,186.02 162.084,143.204 234.244,139.524 256.26,74.1 279.876,142.34 
	351.652,143.812 294.02,190.564 316.788,255.716 257.124,217.572 "/>
<g>
</g>
<g>
</g>
<g>
</g>
<g>
</g>
<g>
</g>
<g>
</g>
<g>
</g>
<g>
</g>
<g>
</g>
<g>
</g>
<g>
</g>
<g>
</g>
<g>
</g>
<g>
</g>
<g>
</g>
</svg>
