<?xml version="1.0" encoding="iso-8859-1"?>
<!-- Generator: Adobe Illustrator 19.0.0, SVG Export Plug-In . SVG Version: 6.00 Build 0)  -->
<svg version="1.1" id="Layer_1" xmlns="http://www.w3.org/2000/svg" xmlns:xlink="http://www.w3.org/1999/xlink" x="0px" y="0px"
	 viewBox="0 0 512 512" style="enable-background:new 0 0 512 512;" xml:space="preserve">
<rect x="235.789" style="fill:#FF5023;" width="40.421" height="148.211"/>
<rect x="256" style="fill:#802812;" width="20.211" height="148.211"/>
<path style="fill:#FF5023;" d="M256,404.211c-29.719,0-53.895,24.176-53.895,53.895C202.105,487.824,226.281,512,256,512
	c29.718,0,53.895-24.176,53.895-53.895C309.895,428.386,285.718,404.211,256,404.211z"/>
<path style="fill:#802812;" d="M256,512c29.718,0,53.895-24.176,53.895-53.895c0-29.719-24.177-53.895-53.895-53.895"/>
<path style="fill:#BFE4F8;" d="M410.947,353.772V235.789c0-85.438-69.509-154.947-154.947-154.947s-154.947,69.509-154.947,154.947
	v117.982L66.274,458.105h379.45L410.947,353.772z"/>
<g>
	<rect x="471.579" y="240.896" style="fill:#FF9811;" width="40.421" height="40.421"/>
	
		<rect x="452.341" y="172.701" transform="matrix(-0.7071 -0.7071 0.7071 -0.7071 670.2861 663.465)" style="fill:#FF9811;" width="40.421" height="40.421"/>
	
		<rect x="452.347" y="309.076" transform="matrix(-0.7071 -0.7071 0.7071 -0.7071 573.8647 896.2755)" style="fill:#FF9811;" width="40.421" height="40.421"/>
</g>
<g>
	<rect y="240.896" style="fill:#FFDA44;" width="40.421" height="40.421"/>
	
		<rect x="19.244" y="172.707" transform="matrix(-0.7071 -0.7071 0.7071 -0.7071 -69.0599 357.2292)" style="fill:#FFDA44;" width="40.421" height="40.421"/>
	
		<rect x="19.25" y="309.072" transform="matrix(-0.7071 -0.7071 0.7071 -0.7071 -165.4746 590.0235)" style="fill:#FFDA44;" width="40.421" height="40.421"/>
</g>
<path style="fill:#93C7EF;" d="M256,458.105h189.726l-34.778-104.333V235.789c0-85.438-69.509-154.947-154.947-154.947V458.105z"/>
<path style="fill:#FFFFFF;" d="M195.368,229.053h-40.421C154.947,173.332,200.28,128,256,128v40.421
	C222.568,168.421,195.368,195.62,195.368,229.053z"/>
<g>
</g>
<g>
</g>
<g>
</g>
<g>
</g>
<g>
</g>
<g>
</g>
<g>
</g>
<g>
</g>
<g>
</g>
<g>
</g>
<g>
</g>
<g>
</g>
<g>
</g>
<g>
</g>
<g>
</g>
</svg>
